<?xml version="1.0" standalone="no"?>
<!DOCTYPE svg PUBLIC "-//W3C//DTD SVG 20010904//EN"
 "http://www.w3.org/TR/2001/REC-SVG-20010904/DTD/svg10.dtd">
<svg version="1.0" xmlns="http://www.w3.org/2000/svg"
 width="300.000000pt" height="298.000000pt" viewBox="0 0 300.000000 298.000000"
 preserveAspectRatio="xMidYMid meet">
<metadata>
Created by potrace 1.10, written by Peter Selinger 2001-2011
</metadata>
<g transform="translate(0.000000,298.000000) scale(0.100000,-0.100000)"
fill="#000000" stroke="none">
<path d="M1415 2281 c-22 -10 -46 -25 -54 -34 -7 -10 -27 -17 -44 -17 -81 0
-163 -76 -174 -161 -4 -24 -20 -62 -37 -87 -26 -36 -31 -52 -31 -102 0 -50 5
-66 31 -102 17 -24 34 -64 38 -89 4 -24 18 -60 31 -80 26 -40 95 -79 138 -79
14 0 47 -15 72 -32 39 -28 55 -33 105 -33 50 0 66 5 102 31 25 17 63 33 87 37
85 11 161 93 161 174 0 17 7 37 17 44 24 21 53 89 53 129 0 40 -29 108 -53
129 -10 7 -17 28 -17 45 -1 83 -74 162 -162 173 -24 3 -52 14 -63 24 -29 26
-89 49 -127 49 -18 0 -51 -9 -73 -19z m155 -21 c22 -11 40 -25 40 -30 0 -5
-16 2 -36 15 -26 18 -50 25 -84 25 -34 0 -58 -7 -84 -25 -20 -13 -36 -20 -36
-15 0 18 75 49 118 50 24 0 60 -9 82 -20z m-14 -16 c34 -16 45 -34 21 -34 -14
0 -60 -40 -77 -67 -10 -15 -12 -16 -17 -3 -9 22 -63 70 -79 70 -24 0 -15 16
19 33 42 21 90 21 133 1z m-226 -34 c0 -5 -12 -10 -27 -10 -60 0 -120 -58
-134 -128 -7 -36 -7 -36 -8 -6 -2 56 63 128 130 144 19 4 35 8 37 9 1 1 2 -3
2 -9z m419 -28 c40 -29 71 -81 70 -116 -1 -30 -1 -30 -8 6 -14 70 -74 128
-133 128 -16 0 -28 4 -28 9 0 14 70 -5 99 -27z m-153 15 c-45 -29 -64 -48 -79
-79 -9 -18 -17 -26 -17 -17 0 22 37 67 74 90 33 20 53 26 22 6z m-155 -36 c22
-21 39 -45 39 -52 0 -8 -9 1 -20 19 -11 18 -34 41 -52 52 -18 11 -27 20 -19
20 7 0 31 -17 52 -39z m-126 -40 c0 -38 -3 -67 -7 -65 -12 7 -83 7 -107 -1
-22 -7 -23 -5 -17 21 11 42 33 72 69 94 55 34 62 29 62 -49z m132 -1 c27 -39
29 -60 8 -60 -9 0 -30 -7 -47 -16 -30 -15 -32 -15 -45 2 -13 18 -18 100 -7
128 6 15 9 15 38 -2 17 -10 41 -33 53 -52z m185 0 c0 -22 -5 -53 -12 -69 l-12
-30 -31 20 c-18 10 -40 19 -50 19 -36 0 4 79 56 110 38 23 48 13 49 -50z m22
-16 l-1 -66 35 7 c39 7 112 -2 112 -15 0 -4 -16 -3 -36 3 -24 7 -47 8 -73 1
-48 -13 -61 -1 -47 44 7 23 6 46 -1 74 -8 29 -8 37 1 28 6 -6 11 -40 10 -76z
m74 66 c35 -22 72 -74 72 -103 0 -14 -5 -17 -22 -11 -24 7 -95 7 -106 0 -4 -2
-7 27 -7 65 0 78 7 83 63 49z m-429 -126 c17 -4 31 -10 31 -14 0 -5 -16 -3
-36 3 -25 8 -47 8 -75 0 -43 -11 -52 -8 -16 7 27 11 55 12 96 4z m271 -17 c70
-37 108 -128 80 -192 -6 -13 -7 -4 -3 26 7 56 -16 110 -61 143 -42 32 -70 39
-122 31 -89 -13 -151 -110 -125 -197 37 -122 181 -154 270 -59 19 20 30 27 24
16 -20 -36 -57 -64 -104 -76 -40 -11 -53 -10 -93 5 -84 32 -130 118 -107 199
32 108 143 156 241 104z m3 -29 c112 -79 56 -258 -81 -258 -84 0 -142 56 -142
138 0 72 30 114 97 137 45 16 87 10 126 -17z m-249 11 l24 -11 -19 -32 c-10
-17 -19 -39 -19 -49 0 -14 -5 -17 -22 -11 -54 17 -105 71 -94 100 7 17 93 19
130 3z m470 0 c24 -11 24 -13 11 -39 -16 -31 -70 -80 -88 -80 -6 0 5 11 25 25
38 26 58 53 58 77 0 7 -9 -1 -20 -19 -30 -50 -110 -92 -110 -58 0 9 -7 30 -16
47 -15 30 -15 32 2 45 22 16 104 17 138 2z m-649 -19 c-3 -5 -1 -10 4 -10 6 0
11 -6 11 -14 0 -7 19 -30 41 -51 42 -38 42 -37 3 -63 -6 -4 -21 -22 -32 -41
l-20 -33 -17 25 c-25 38 -29 88 -11 132 19 46 14 59 -8 18 -8 -15 -15 -24 -16
-20 0 14 33 67 43 67 4 0 5 -4 2 -10z m81 -67 c16 -11 36 -23 44 -26 11 -4 10
-6 -4 -6 -24 -1 -96 71 -96 95 1 13 5 9 14 -12 8 -17 27 -40 42 -51z m644 37
c11 -21 20 -58 20 -80 0 -42 -33 -120 -50 -120 -5 0 2 16 15 36 18 26 25 50
25 84 0 34 -7 58 -25 84 -13 20 -20 36 -15 36 5 0 19 -18 30 -40z m-16 -20 c9
-22 16 -51 16 -65 0 -25 -29 -95 -39 -95 -4 0 -12 14 -20 31 -8 17 -27 39 -42
48 -16 9 -29 18 -29 21 0 3 14 14 30 25 17 11 36 32 43 48 6 15 15 27 18 27 4
0 14 -18 23 -40z m-615 -93 c-19 -12 -42 -38 -51 -57 -12 -23 -18 -28 -18 -16
0 21 71 96 90 96 7 0 -2 -10 -21 -23z m532 -16 c22 -21 39 -45 39 -52 0 -8 -9
1 -20 19 -11 18 -34 41 -52 52 -18 11 -27 20 -19 20 7 0 31 -17 52 -39z m-461
12 c0 -10 9 -32 19 -49 l19 -32 -24 -11 c-31 -14 -121 -15 -129 -1 -12 19 7
51 47 81 47 33 68 37 68 12z m428 -12 c40 -30 59 -62 47 -81 -8 -14 -98 -13
-129 1 l-24 11 19 32 c10 17 19 39 19 49 0 25 21 21 68 -12z m-285 -131 c36 0
-4 -79 -56 -110 -30 -19 -32 -19 -39 -2 -11 27 -9 99 3 126 l11 24 32 -19 c17
-10 39 -19 49 -19z m179 -43 c1 -18 -4 -49 -11 -70 -12 -36 -13 -37 -41 -22
-35 18 -80 71 -80 93 1 9 7 3 14 -14 15 -34 60 -74 85 -74 9 0 0 10 -20 24
-20 14 -44 40 -53 59 -20 44 -20 47 2 47 9 0 31 8 47 19 30 18 30 18 43 -5 7
-13 13 -39 14 -57z m-439 -31 c23 -34 60 -58 105 -67 36 -7 36 -7 6 -8 -62 -2
-145 81 -143 143 1 30 1 30 8 -6 4 -20 15 -48 24 -62z m462 54 c7 -41 -1 -96
-15 -105 -4 -3 -3 11 3 31 8 25 8 47 0 75 -5 21 -7 39 -2 39 4 0 10 -18 14
-40z m165 11 c0 -60 -84 -142 -144 -140 -30 1 -30 1 6 8 70 14 128 74 128 134
0 15 2 27 5 27 3 0 5 -13 5 -29z m-505 -53 c0 -76 -7 -82 -62 -48 -35 21 -58
52 -68 90 -6 25 -5 25 62 25 l68 0 0 -67z m485 52 c0 -26 -39 -79 -72 -100
-56 -34 -63 -29 -63 47 l0 68 68 0 c53 0 67 -3 67 -15z m-329 -58 c-13 -25
-69 -72 -84 -72 -7 0 3 9 21 20 18 11 41 34 50 50 18 32 30 34 13 2z m34 -22
c4 -11 24 -30 46 -43 21 -12 39 -25 39 -29 0 -15 -90 -40 -124 -34 -38 7 -93
45 -66 46 18 0 80 54 80 69 0 19 18 12 25 -9z m-15 -120 c34 0 58 7 84 25 20
13 36 20 36 15 0 -17 -78 -50 -120 -50 -42 0 -120 33 -120 50 0 5 16 -2 36
-15 26 -18 50 -25 84 -25z"/>
<path d="M1420 1940 c-31 -31 -24 -54 27 -104 l48 -45 43 42 c36 35 40 43 25
48 -10 3 -21 2 -24 -3 -3 -5 -13 -6 -22 -2 -13 5 -17 0 -17 -21 0 -21 -4 -26
-16 -21 -9 3 -19 6 -22 6 -4 0 -1 4 6 9 10 6 9 11 -4 22 -14 11 -16 11 -10 1
6 -10 3 -13 -9 -10 -24 4 -37 42 -22 62 9 12 16 13 27 5 13 -9 12 -10 -3 -5
-11 3 -16 2 -12 -5 4 -5 15 -7 26 -4 12 4 21 1 25 -9 8 -20 24 -21 24 -1 0 8
5 15 10 15 6 0 10 -5 10 -10 0 -5 3 -9 8 -8 4 0 15 -2 25 -7 25 -11 32 1 19
30 -13 27 -56 43 -75 27 -8 -7 -18 -7 -27 -2 -23 15 -38 12 -60 -10z"/>
<path d="M730 1605 l-24 -26 25 -25 25 -25 23 25 c23 24 23 25 5 50 -24 32
-25 32 -54 1z"/>
<path d="M2230 1605 l-24 -26 25 -25 25 -25 23 25 c23 24 23 25 5 50 -24 32
-25 32 -54 1z"/>
<path d="M498 1573 c28 -2 76 -2 105 0 28 2 5 3 -53 3 -58 0 -81 -1 -52 -3z"/>
<path d="M908 1573 c28 -2 76 -2 105 0 28 2 5 3 -53 3 -58 0 -81 -1 -52 -3z"/>
<path d="M1998 1573 c28 -2 76 -2 105 0 28 2 5 3 -53 3 -58 0 -81 -1 -52 -3z"/>
<path d="M2408 1573 c28 -2 76 -2 105 0 28 2 5 3 -53 3 -58 0 -81 -1 -52 -3z"/>
<path d="M720 1371 c0 -5 -3 -16 -6 -25 -3 -9 -1 -16 5 -16 6 0 11 6 11 14 0
12 20 26 37 26 3 0 4 -33 1 -74 -3 -71 -2 -73 19 -73 13 0 23 3 23 8 0 5 -4 9
-10 9 -6 0 -10 28 -10 65 0 53 3 65 16 65 9 0 18 -9 21 -20 7 -28 23 -25 23 5
0 24 -2 25 -65 25 -36 0 -65 -4 -65 -9z"/>
<path d="M895 1300 c0 -76 1 -80 23 -80 12 0 22 5 22 10 0 6 -4 10 -10 10 -5
0 -10 14 -10 30 0 28 2 30 40 30 37 0 40 -2 40 -28 0 -15 -5 -33 -12 -40 -9
-9 -6 -12 13 -12 24 0 25 1 21 71 -3 53 -1 74 9 80 10 6 3 9 -20 9 -27 0 -32
-3 -23 -12 7 -7 12 -22 12 -35 0 -20 -5 -23 -40 -23 -35 0 -40 3 -40 23 0 13
5 28 12 35 9 9 7 12 -12 12 -24 0 -25 -2 -25 -80z"/>
<path d="M1088 1368 c14 -14 16 -128 2 -128 -5 0 -10 -4 -10 -8 0 -5 26 -8 58
-8 51 1 57 3 60 24 2 12 -1 22 -7 22 -6 0 -11 -7 -11 -15 0 -10 -10 -15 -30
-15 -27 0 -30 3 -30 30 0 31 17 39 38 18 9 -9 12 -6 12 15 0 15 -4 27 -10 27
-5 0 -10 -4 -10 -10 0 -5 -7 -10 -15 -10 -17 0 -21 45 -5 55 6 4 22 -1 35 -9
24 -16 25 -15 25 4 0 18 -6 20 -57 20 -44 0 -54 -3 -45 -12z"/>
<path d="M1330 1365 c8 -10 11 -37 8 -80 -4 -62 -3 -65 19 -65 13 0 23 5 23
10 0 6 -4 10 -10 10 -5 0 -10 14 -10 30 0 28 2 30 41 30 38 0 41 -2 35 -24 -3
-13 -8 -31 -12 -39 -3 -10 2 -15 18 -15 22 0 23 4 23 79 0 76 -1 79 -23 79
-16 0 -21 -4 -15 -12 4 -7 9 -23 11 -35 2 -21 -2 -23 -38 -23 -35 0 -40 3 -40
23 0 13 5 28 12 35 9 9 5 12 -21 12 -29 0 -32 -2 -21 -15z"/>
<path d="M1527 1368 c13 -19 17 -128 4 -128 -6 0 -11 -4 -11 -9 0 -5 25 -9 55
-10 30 0 55 4 55 9 0 4 3 15 6 24 3 9 1 16 -5 16 -6 0 -11 -7 -11 -15 0 -10
-10 -15 -30 -15 -27 0 -30 3 -30 30 0 20 5 30 15 30 8 0 15 -5 15 -11 0 -5 5
-7 10 -4 6 3 10 15 10 26 0 10 -4 19 -10 19 -5 0 -10 -4 -10 -10 0 -5 -7 -10
-15 -10 -10 0 -15 10 -15 30 0 33 19 40 44 15 20 -20 26 -19 26 5 0 18 -7 20
-56 20 -43 0 -54 -3 -47 -12z"/>
<path d="M1710 1318 c-13 -35 -27 -67 -32 -72 -14 -16 -9 -26 12 -26 17 0 19
4 14 26 -6 24 -5 25 27 22 27 -2 34 -7 32 -23 -1 -15 4 -21 22 -23 23 -2 35
12 17 20 -10 4 -52 105 -52 124 0 33 -19 9 -40 -48z m39 -20 c1 -5 -8 -8 -19
-8 -17 0 -18 3 -8 26 11 23 13 24 19 7 4 -10 8 -21 8 -25z"/>
<path d="M1848 1368 c14 -14 16 -128 2 -128 -5 0 -10 -4 -10 -8 0 -5 24 -9 54
-10 50 -1 54 1 59 23 5 27 -7 34 -17 10 -3 -8 -17 -15 -31 -15 -24 0 -25 2
-25 64 0 42 4 66 13 69 6 3 -4 6 -22 6 -27 1 -32 -2 -23 -11z"/>
<path d="M1970 1355 c0 -30 16 -33 23 -5 3 11 12 20 21 20 13 0 16 -12 16 -63
0 -36 -5 -68 -12 -75 -9 -9 -5 -12 20 -12 18 0 32 5 32 10 0 6 -4 10 -10 10
-6 0 -10 29 -10 66 0 56 2 65 16 60 9 -3 18 -6 20 -6 2 0 4 -7 4 -15 0 -8 5
-15 10 -15 11 0 13 11 4 34 -5 12 -21 16 -70 16 -62 0 -64 -1 -64 -25z"/>
<path d="M2149 1371 c10 -6 12 -27 9 -80 -3 -62 -1 -71 13 -71 14 0 16 7 12
40 l-6 40 38 0 38 0 -6 -40 c-5 -36 -3 -40 16 -40 21 0 22 5 22 80 0 74 -2 80
-20 80 -18 0 -20 -5 -17 -35 4 -34 3 -35 -32 -35 -31 0 -36 3 -36 23 0 13 5
28 12 35 9 9 4 12 -22 12 -24 0 -31 -3 -21 -9z"/>
<path d="M760 1180 c0 -5 5 -10 10 -10 14 0 12 -114 -2 -128 -9 -9 -4 -12 23
-11 18 0 28 3 22 6 -7 2 -13 16 -13 29 0 19 5 24 25 24 29 0 59 39 49 64 -4
10 -18 22 -31 27 -32 12 -83 12 -83 -1z m87 -26 c8 -20 -8 -48 -31 -52 -12 -3
-16 4 -16 32 0 30 4 36 20 36 11 0 23 -7 27 -16z"/>
<path d="M925 1110 c0 -79 0 -80 25 -79 14 0 19 3 13 6 -15 5 -18 63 -4 63 5
0 18 -16 30 -35 11 -19 27 -35 36 -35 13 0 11 7 -9 33 l-25 33 20 20 c34 34
-1 74 -64 74 -21 0 -22 -4 -22 -80z m70 30 c0 -18 -6 -26 -22 -28 -20 -3 -23
1 -23 28 0 27 3 31 23 28 16 -2 22 -10 22 -28z"/>
<path d="M1115 1181 l-30 -6 0 -73 0 -72 53 0 c50 0 52 1 51 28 0 26 -1 26 -9
5 -7 -17 -18 -23 -40 -23 -27 0 -30 3 -30 29 0 35 15 48 35 31 13 -10 15 -8
14 16 0 16 -3 23 -6 17 -2 -7 -14 -13 -25 -13 -14 0 -19 6 -16 23 4 29 44 36
64 10 14 -17 14 -17 12 6 -3 26 -22 32 -73 22z"/>
<path d="M1245 1111 l0 -81 43 0 c32 0 49 6 67 25 53 52 16 123 -67 132 l-43
5 0 -81z m90 45 c27 -19 24 -74 -4 -98 -42 -33 -51 -24 -51 47 0 56 2 65 18
65 10 0 27 -6 37 -14z"/>
<path d="M1425 1180 c-3 -5 -1 -10 4 -10 15 0 14 -113 -1 -128 -9 -9 -4 -12
23 -12 23 0 30 3 20 9 -10 6 -12 27 -9 80 3 62 1 71 -14 71 -9 0 -20 -4 -23
-10z"/>
<path d="M1545 1166 c-51 -51 -20 -136 48 -136 31 0 57 15 57 32 0 5 -11 1
-25 -8 -23 -15 -27 -15 -50 0 -33 22 -42 59 -21 91 21 31 58 33 79 3 l16 -23
0 30 c1 28 -2 30 -39 33 -32 2 -46 -3 -65 -22z"/>
<path d="M1696 1183 c-3 -4 -6 -18 -6 -31 0 -14 3 -22 8 -18 4 4 7 13 7 19 0
7 10 13 23 15 21 3 22 0 20 -50 -1 -29 -5 -61 -10 -70 -7 -15 -4 -18 14 -18
22 0 23 3 20 70 -3 59 -1 70 13 70 8 0 20 -10 25 -22 9 -21 9 -20 7 7 -2 29
-3 30 -58 32 -31 1 -59 -1 -63 -4z"/>
<path d="M1885 1165 c-49 -49 -17 -135 50 -135 45 0 75 32 75 80 0 72 -76 105
-125 55z m84 -11 c26 -33 27 -65 3 -94 -26 -32 -66 -21 -81 20 -11 33 -7 55
17 83 21 24 37 21 61 -9z"/>
<path d="M2068 1118 c3 -52 1 -73 -9 -79 -9 -6 -2 -8 21 -8 19 0 29 3 23 6
-15 5 -18 63 -4 63 5 0 18 -16 30 -35 11 -19 27 -35 36 -35 13 0 11 7 -9 33
-25 33 -25 33 -6 50 39 33 17 66 -47 73 l-39 3 4 -71z m67 22 c0 -18 -6 -26
-22 -28 -20 -3 -23 1 -23 28 0 27 3 31 23 28 16 -2 22 -10 22 -28z"/>
<path d="M1180 859 c0 -4 18 -7 40 -7 22 0 40 4 40 9 0 5 -18 9 -40 7 -22 -1
-40 -5 -40 -9z"/>
<path d="M1290 857 c0 -5 27 -7 60 -5 33 1 60 -1 60 -5 0 -5 5 -5 10 -2 6 4 8
10 5 15 -7 12 -135 8 -135 -3z"/>
<path d="M1470 860 c0 -5 32 -9 70 -9 39 0 70 5 70 10 0 5 -31 9 -70 9 -38 0
-70 -4 -70 -10z"/>
<path d="M1625 860 c3 -5 17 -10 31 -10 13 0 24 5 24 10 0 6 -14 10 -31 10
-17 0 -28 -4 -24 -10z"/>
<path d="M1750 860 c0 -5 16 -10 35 -10 19 0 35 5 35 10 0 6 -16 10 -35 10
-19 0 -35 -4 -35 -10z"/>
<path d="M603 853 c87 -2 227 -2 310 0 84 1 13 3 -158 3 -170 0 -239 -2 -152
-3z"/>
<path d="M2103 853 c87 -2 227 -2 310 0 84 1 13 3 -158 3 -170 0 -239 -2 -152
-3z"/>
</g>
</svg>
